# xmcd CD database file
#
# Track frame offsets:
#	150
#	15176
#	28819
#	43358
#	56372
#	70546
#	84698
#	99534
#	113127
#	126520
#	139247
#	152911
#	166006
#	180441
#	193401
#	206740
#	221209
#	235752
#	249584
#	263062
#	276483
#	291796
#	306876
#	321200
#
# Disc length: 4438 seconds
#
# Revision: 0
# Processed by: cddbd v1.5.2PL0 Copyright (c) Steve Scherf et al.
# Submitted via: CDex 1.51
#
DISCID=69115418
DTITLE=Bessie Smith - The Bessie Smith Collection
DYEAR=2012
DGENRE=Blues
TTITLE0=Jazzbo Brown From Memphis Town
TTITLE1=Baby Doll
TTITLE2=Honey Man Blues
TTITLE3=One and Two Blues
TTITLE4=Young Woman's Blues
TTITLE5=Muddy Water
TTITLE6=There'll Be a Hot Time in Old Town Tonight
TTITLE7=Sweet Mistreater
TTITLE8=Dyin' by the Hour
TTITLE9=I Used to Be Your Sweet Mama
TTITLE10=Put It Right Here
TTITLE11=Standin' In the Rain blues
TTITLE12=Devil's gonna Git You
TTITLE13=Me and My gin
TTITLE14=My Kitchen Man
TTITLE15=I've Got What It Takes
TTITLE16=He's Got Me Goin'
TTITLE17=You Don't Understand
TTITLE18=New Orleans Hop Scop Blues
TTITLE19=blue Spirit blues
TTITLE20=See If I Care
TTITLE21=Shipwreck blues
TTITLE22=I'm Down In The Dumps
TTITLE23=Take Me for  A Buggy Ride
EXTD=YEAR: 2012
EXTT0=
EXTT1=
EXTT2=
EXTT3=
EXTT4=
EXTT5=
EXTT6=
EXTT7=
EXTT8=
EXTT9=
EXTT10=
EXTT11=
EXTT12=
EXTT13=
EXTT14=
EXTT15=
EXTT16=
EXTT17=
EXTT18=
EXTT19=
EXTT20=
EXTT21=
EXTT22=
EXTT23=
PLAYORDER=
